<svg xmlns="http://www.w3.org/2000/svg" enable-background="new 0 0 24 24" viewBox="0 0 24 24" id="adobe-indesign">
  <path d="M14.581,9.622c-1.285,0-2.187,0.99-2.187,2.64c0,1.882,0.918,2.64,2.073,2.64c0.247,0,0.512-0.032,0.71-0.115V9.722h-0.002C15.027,9.656,14.828,9.622,14.581,9.622z"></path>
  <path d="M22,0H2C0.896,0,0,0.895,0,2v20c0,1.105,0.896,2,2,2h20c1.104,0,2-0.895,2-2V2C24,0.895,23.104,0,22,0z M8.775,16.218c0,0.1-0.017,0.132-0.132,0.132H7.107c-0.1,0-0.132-0.05-0.132-0.132V5.482c0-0.1,0.05-0.132,0.132-0.132H8.66c0.082,0,0.115,0.033,0.115,0.116V16.218z M16.963,15.909c-0.858,0.413-1.766,0.595-2.624,0.595c-2.213,0-3.797-1.37-3.797-4.158h0.003c0-2.393,1.578-4.257,4.102-4.257c0.214,0,0.33,0,0.528,0.015V5.45c0-0.066,0.05-0.1,0.1-0.1H16.9c0.084,0,0.1,0.034,0.1,0.084v9.355c0,0.28,0,0.625,0.05,1.004C17.05,15.859,17.03,15.876,16.963,15.909z"></path>
</svg>
